PathFileType	4	(X/Y/Z)	C:/Users/beibeiliu/ov580/test_trc/User3\sequence.24_training_dense_left.trc
DataRate	CameraRate	NumFrames	NumMarkers	Units	OrigDataRate	OrigDataStartFrame	OrigNumFrames
120	120	13	19	mm	120	51	75
Frame#	Time	ThumbCMC			ThumbMCP			ThumbIP			ThumbTip			IndexMCP			IndexPIP			IndexTip			MiddleMCP			MiddlePIP			MiddleTip			RingMCP			RingPIP			RingTip			PinkyMCP			PinkyPIP			PinkyTip			BackHand1			BackHand2			BackHand3	
		X0	Y0	Z0	X1	Y1	Z1	X2	Y2	Z2	X3	Y3	Z3	X4	Y4	Z4	X5	Y5	Z5	X6	Y6	Z6	X7	Y7	Z7	X8	Y8	Z8	X9	Y9	Z9	X10	Y10	Z10	X11	Y11	Z11	X12	Y12	Z12	X13	Y13	Z13	X14	Y14	Z14	X15	Y15	Z15	X16	Y16	Z16	X17	Y17	Z17	X18	Y18	Z18	
50	0.416667	-77.175	10.9689	33.2304	-75.7374	-2.88141	-3.67322	-88.1644	-14.6367	-28.8626	-112.247	-24.9417	-40.9815	-107.938	51.6309	-25.3302	-115.324	57.138	-53.651	-115.029	62.1562	-75.0059	-131.04	48.2714	-29.0521	-133.127	55.2814	-57.0888	-135.485	59.0591	-85.645	-139.765	19.7317	-27.8713	-129.345	-8.35011	-43.3062	-112.933	-20.1433	-15.141	-145.563	-4.15751	-18.6018	-130.253	-25.7518	-21.0882	-114.953	-27.9408	4.40337	-142.827	27.1176	29.986	-139.037	19.0702	56.7411	-111.751	37.1554	40.6031	
51	0.425	-68.761	6.58386	35.8986	-64.3334	-12.6455	1.2078	-80.9707	-23.3555	-23.3702	-108.113	-30.1813	-35.7441	-92.7872	44.9105	-30.7804	-92.6332	47.1595	-57.3126	-95.2561	49.2432	-82.7244	-112.438	43.6944	-33.5126	-109.325	47.5757	-59.2653	-112.394	48.0685	-95.7911	-123.937	17.6337	-31.1064	-115.577	-11.4068	-42.5438	-108.625	-24.52	-13.8482	-138.911	-3.93225	-17.0036	-119.841	-27.6125	-14.9719	-110.05	-24.4325	10.9431	-129.92	31.6456	24.5735	-131.172	23.6942	54.8805	-97.737	39.5644	37.668	
52	0.433333	-68.6923	3.26897	36.7063	-62.6869	-19.8772	10.1767	-77.4698	-35.4068	-22.1178	-102.767	-40.9829	-27.8648	-84.7442	31.0314	-31.888	-82.3895	29.1051	-58.0374	-82.839	26.6846	-84.049	-103.83	31.4959	-40.8939	-97.41	30.3031	-63.3486	-92.7333	25.7557	-95.6432	-120.797	5.89244	-29.2405	-109.928	-22.789	-38.4246	-103.059	-32.8431	-6.28701	-131.616	-12.5101	-15.1559	-115.173	-35.269	-7.6291	-107.893	-31.0094	22.834	-123.219	27.9911	20.4601	-127.418	26.4861	55.1674	-91.5139	36.4226	33.4965	
53	0.441667	-65.5373	-2.00123	41.5708	-62.8921	-29.3387	11.3505	-75.9042	-48.589	-12.6353	-100.013	-53.8584	-17.9256	-81.4101	15.9208	-32.6349	-77.8686	8.43841	-59.2546	-76.3639	3.37867	-80.1337	-96.688	14.9627	-41.6468	-94.6594	7.8525	-67.5719	-91.8787	-1.46106	-95.0167	-113.66	-6.85091	-29.5576	-110.621	-36.5108	-32.2907	-100.235	-45.3348	-2.78061	-128.29	-20.3361	-11.8974	-113.456	-43.8304	-3.06048	-105.059	-39.5894	24.8985	-125.277	24.2798	22.6043	-124.417	26.1103	51.0274	-88.7692	31.8464	30.8441	
54	0.45	-66.3722	-6.10667	38.8955	-63.8138	-34.6919	19.277	-75.0692	-57.1423	-3.77102	-98.4856	-64.957	-10.0176	-83.0742	1.65447	-33.2575	-79.7705	-10.0354	-60.4736	-78.6995	-18.3144	-77.9487	-103.506	-1.02327	-39.1239	-96.1847	-13.5642	-65.2599	-92.3635	-26.3522	-91.7182	-119.789	-20.0707	-24.3701	-113.227	-51.6856	-24.3147	-100.82	-55.8905	3.72743	-129.629	-33.2115	-8.22662	-116.187	-54.4119	1.78069	-105.309	-46.9369	27.8199	-125.839	16.7839	19.8849	-126.348	19.9177	51.8736	-90.0782	24.3366	30.9398	
55	0.458333	-69.1109	-7.40404	41.9008	-62.9403	-38.0324	19.9221	-74.0787	-58.632	1.63327	-93.8851	-74.1408	-10.115	-85.2331	-3.52978	-30.3569	-81.4319	-18.0494	-55.9344	-79.6913	-30.3505	-76.6749	-102.402	-6.44158	-37.433	-96.8662	-20.0694	-63.5758	-96.2604	-37.5971	-85.1532	-117.821	-22.2505	-22.2748	-111.907	-57.9535	-25.143	-100.422	-66.0598	1.61804	-133.38	-36.0422	-6.87103	-119.052	-58.5354	-3.18091	-106.557	-57.382	28.7397	-123.608	11.9744	21.3976	-124.015	18.802	49.2003	-93.2696	24.2966	33.0917	
56	0.466667	-65.7597	-7.66193	41.6057	-57.4262	-37.3328	22.1867	-62.8113	-60.5474	1.34597	-79.5097	-76.3899	-9.52586	-80.75	-3.38445	-31.751	-75.1654	-17.0239	-55.007	-71.7331	-31.1964	-73.8201	-102.034	-5.73502	-38.1186	-98.7404	-21.6276	-63.8884	-95.5955	-44.731	-85.8586	-118.037	-20.6671	-22.2631	-113.029	-53.7972	-33.4019	-98.1825	-71.9319	-11.6877	-132.567	-29.3142	-6.29739	-123.896	-55.1768	-14.1278	-109.162	-68.8213	12.1487	-126.941	9.68912	19.1164	-127.215	18.103	52.9576	-90.7756	20.4925	30.9789	
57	0.475	-64.348	-8.53852	49.4912	-54.2951	-35.2002	29.5133	-57.5112	-58.6455	5.99547	-67.1663	-74.6007	-6.5814	-73.2808	-5.85111	-30.2518	-69.7977	-19.1681	-53.0832	-63.4507	-35.9603	-71.8684	-98.4996	-4.92161	-35.373	-94.713	-18.5681	-58.6838	-89.587	-48.6578	-82.001	-114.106	-16.9725	-26.4657	-111.316	-41.8713	-43.7497	-103.761	-68.7793	-35.6028	-133.257	-23.7313	-7.45057	-129.972	-49.3194	-23.4004	-117.861	-72.5775	-13.3909	-122.018	8.86124	24.3776	-119.698	18.6862	52.2508	-88.9128	20.2334	36.2143	
58	0.483333	-57.7235	-8.40493	54.0633	-49.232	-33.4344	33.6493	-43.9712	-53.977	13.6037	-48.9909	-72.2721	-5.4402	-68.1023	-4.55372	-24.0829	-62.0316	-18.0844	-47.8096	-56.4162	-38.0327	-70.0174	-93.2523	-3.6736	-30.5003	-87.5604	-21.5161	-59.7895	-83.0351	-47.3822	-79.99	-112.195	-9.60059	-21.8536	-111.79	-30.104	-46.8756	-107.194	-55.6346	-53.7807	-132.837	-16.6825	-7.13822	-132.531	-32.9622	-27.4953	-126.558	-61.8043	-34.121	-113.569	12.4834	23.2688	-118.719	19.5172	55.2646	-85.538	20.2533	37.5691	
59	0.491667	-56.281	-7.59472	57.2779	-44.4152	-29.0148	35.8311	-35.0686	-46.9349	14.8562	-35.0644	-63.4289	-4.69307	-61.9676	-3.96162	-25.9949	-53.1299	-17.9174	-48.6228	-52.9815	-31.8795	-65.3257	-90.4804	-1.33374	-33.0421	-83.9601	-14.0695	-56.2717	-83.6312	-38.8238	-79.6321	-110.437	-5.70222	-24.823	-108.344	-20.2403	-49.6578	-109.484	-43.6696	-68.0145	-131.071	-12.2589	-5.21322	-135.019	-26.1143	-31.7164	-133.407	-43.2665	-44.2362	-117.108	14.93	28.6365	-119.236	21.4374	55.2873	-80.0589	20.9123	40.0849	
60	0.5	-56.6128	-4.57165	56.7411	-42.324	-21.1914	35.7728	-26.2774	-37.7156	10.9381	-23.53	-49.9183	-5.35641	-66.565	2.51877	-21.5363	-59.2607	-7.86244	-48.0103	-55.2098	-23.9649	-72.7223	-88.1297	5.30797	-31.8724	-87.1334	-5.39969	-56.3834	-80.9219	-25.0353	-87.1269	-112.457	0.521986	-24.1995	-114.377	-9.52093	-50.1941	-111.919	-24.0479	-71.2953	-131.087	-7.14631	-7.67717	-138.54	-15.3401	-30.1104	-142.123	-25.6783	-50.5962	-114.606	16.785	24.7217	-117.571	21.2985	57.9252	-86.4904	19.9498	40.8365	
61	0.508333	-58.9759	-1.4694	52.6511	-41.3447	-14.3074	32.694	-25.3695	-25.842	10.5637	-16.1162	-36.908	-10.221	-76.8429	10.8918	-24.0355	-69.1449	4.36961	-52.5082	-61.1151	-6.3787	-75.6591	-98.1802	12.1124	-33.8636	-97.8494	4.50273	-61.5888	-93.5359	-7.67667	-90.7506	-122.992	4.55958	-22.5462	-121.822	-0.278919	-49.8754	-125.548	-12.3741	-75.329	-141.729	-3.99883	-8.78236	-145.341	-9.61799	-31.199	-147.332	-17.8212	-51.3766	-122.399	17.061	25.6919	-122.585	19.0323	56.0385	-86.6351	24.2277	42.6395	
62	0.516667	-65.7633	2.52344	49.9377	-47.9235	-5.67488	24.0358	-34.2532	-13.2956	4.34986	-23.9525	-20.7337	-19.2554	-88.5844	20.6052	-27.8456	-83.159	19.1871	-52.7985	-81.0889	10.9549	-80.9855	-112.663	19.9593	-30.7072	-111.293	17.0318	-61.983	-114.345	9.18826	-90.4493	-134.673	8.66254	-22.7934	-135.08	7.1617	-47.1912	-139.905	-3.69896	-75.5264	-150.225	-3.51747	-5.36225	-157.388	-8.36413	-27.6991	-163.356	-14.3177	-50.5184	-129.193	18.8452	33.2679	-127.272	17.0394	59.5394	-97.317	24.4574	41.739	
